<svg xmlns="http://www.w3.org/2000/svg" xmlns:xlink="http://www.w3.org/1999/xlink" width="841.89pt" height="595.276pt" viewBox="0 0 841.89 595.276" version="1.1">
  <path style="fill: #fff" d="M 519.835938 69.265625 C 520.335938 60.472656 520.730469 51.554688 522.535156 42.980469 C 526.445313 24.421875 542.484375 18.621094 557.042969 30.746094 C 564.398438 36.871094 571.636719 44.023438 576.386719 52.1875 C 583.101563 63.730469 590.976563 67.851563 604.558594 66.792969 C 631.074219 64.726563 661.726563 83.851563 668.296875 115.546875 C 672.488281 135.769531 677.964844 146.070313 707.535156 148.882813 C 714.824219 149.574219 722.175781 149.664063 729.488281 150.144531 C 740.890625 150.898438 752.460938 151.296875 762.761719 156.972656 C 777.972656 165.347656 785.300781 179.203125 787.257813 195.796875 C 788.777344 208.671875 784.816406 219.828125 774.3125 228.507813 C 760.964844 239.539063 744.945313 244.070313 728.648438 246.800781 C 701.621094 251.328125 674.28125 252.730469 646.839844 250.882813 C 645.273438 250.777344 642.589844 253.132813 642.097656 254.824219 C 641.429688 257.125 641.707031 260.207031 642.746094 262.402344 C 647.222656 271.859375 651.945313 281.210938 656.953125 290.398438 C 659.019531 294.183594 660.308594 297.660156 656.742188 300.847656 C 652.980469 304.210938 648.625 304.753906 644.371094 301.546875 C 643.019531 300.523438 641.863281 299.152344 640.863281 297.765625 C 631.675781 284.96875 625.039063 271.117188 624.210938 255.09375 C 624.007813 251.164063 622.417969 249.933594 618.6875 249.789063 C 614.625 249.636719 610.542969 248.996094 606.550781 248.171875 C 599.460938 246.714844 597.25 243.789063 598.613281 237.535156 C 599.816406 232.019531 603.636719 231.054688 608.914063 231.496094 C 645.90625 234.605469 682.992188 236.71875 719.820313 230.597656 C 732.582031 228.476563 745.152344 224.039063 757.199219 219.148438 C 767.8125 214.839844 775.730469 200.671875 766.890625 186.429688 C 765.484375 187.902344 764.335938 188.824219 763.539063 189.988281 C 758.085938 197.9375 748.398438 199.574219 740.609375 193.828125 C 734.09375 189.015625 730.460938 182.421875 730.628906 174.5 C 730.769531 167.742188 727.871094 165.847656 721.785156 165.902344 C 715.113281 165.957031 708.433594 165.472656 701.761719 165.152344 C 677.191406 163.972656 660.570313 150.375 653.347656 126.792969 C 650.613281 117.867188 647.574219 108.324219 642.007813 101.125 C 629.148438 84.488281 611 80.703125 590.90625 84.648438 C 578.621094 87.0625 578.277344 86.257813 571.28125 75.808594 C 564.25 65.304688 556.058594 55.5625 548.042969 45.757813 C 546.6875 44.101563 543.234375 42.628906 541.53125 43.242188 C 539.972656 43.804688 538.902344 47.226563 538.605469 49.515625 C 537.722656 56.351563 537.101563 63.242188 536.800781 70.128906 C 536.546875 75.984375 533.613281 78.914063 528.03125 79.09375 C 523.574219 79.238281 519.527344 74.691406 519.835938 69.265625 "/>
  <path style="fill: #fff" d="M 258.109375 238.5 C 256.707031 234.839844 259.414063 231.203125 265.527344 229.800781 C 277.921875 226.957031 290.3125 223.953125 302.9375 221.941406 C 336.425781 216.601563 370.417969 215.269531 404.480469 214.894531 C 412.886719 214.894531 421.300781 214.707031 429.695313 214.949219 C 437.367188 215.175781 441.074219 219.515625 437.511719 224.664063 C 436.164063 226.613281 431.8125 228.160156 428.738281 228.273438 C 407.886719 229.023438 386.988281 229.015625 366.140625 229.867188 C 333.835938 231.1875 301.867188 234.363281 271.050781 242.84375 C 264.460938 244.65625 259.824219 242.980469 258.109375 238.5 "/>
  <path style="fill: #fff" d="M 489.699219 82.851563 C 485.390625 90.988281 481.921875 99.570313 478.144531 107.984375 C 474.09375 117.019531 470.632813 126.554688 461.132813 131.527344 C 456.757813 133.820313 452.203125 133.746094 449.113281 129.128906 C 446.082031 124.601563 446.945313 120.335938 451.5 117.402344 C 458.867188 112.660156 462.257813 105.421875 465.167969 97.625 C 468.023438 89.980469 470.679688 82.136719 474.644531 75.066406 C 481.238281 63.308594 491.589844 56.527344 502.234375 55.625 C 512.761719 55.570313 515.800781 57.585938 515.703125 63.046875 C 515.597656 68.851563 512.820313 71.757813 506.507813 72.214844 C 499.355469 72.734375 493.117188 76.386719 489.699219 82.851563 "/>
  <path style="fill: #fff" d="M 464.128906 177.539063 C 456.929688 178.082031 453.285156 175.882813 452.257813 171.046875 C 451.195313 166.054688 455.109375 163.640625 459.621094 162.53125 C 465.8125 161.007813 470.460938 158.070313 473.574219 153.199219 C 475.359375 150.398438 476.910156 147.484375 478.722656 144.699219 C 481.34375 140.675781 485.246094 139.304688 490.175781 141.070313 C 495.273438 142.894531 495.503906 146.613281 494.242188 150.578125 C 493.609375 152.5625 492.578125 154.476563 491.519531 156.328125 C 485.347656 167.125 476.695313 175.328125 464.128906 177.539063 "/>
  <path style="fill: #fff" d="M 437.898438 409.15625 C 438.304688 409.007813 438.742188 408.917969 439.207031 408.886719 C 442.894531 408.644531 444.433594 412.410156 445.578125 419.667969 C 446.976563 428.527344 449.058594 437.238281 451.441406 445.648438 C 453.398438 452.550781 453.351563 455.902344 449.761719 458.773438 C 446.546875 461.347656 443.402344 459.59375 441.003906 454.035156 C 439.902344 451.484375 438.933594 448.871094 438.097656 446.199219 C 435.582031 438.183594 434.226563 429.644531 433.878906 420.640625 C 433.667969 414.136719 435.054688 410.199219 437.898438 409.15625 "/>
  <path style="fill: #fff" d="M 439.785156 409.15625 C 435.613281 410.199219 433.578125 414.136719 433.890625 420.640625 C 434.402344 429.644531 436.390625 438.183594 440.078125 446.199219 C 436.390625 438.183594 434.398438 429.648438 433.882813 420.640625 C 433.574219 414.136719 435.613281 410.199219 439.785156 409.15625 "/>
  <path style="fill: #fff" d="M 335.578125 411.351563 C 339.109375 410.976563 341.046875 414.445313 341.164063 420.964844 C 341.253906 425.894531 341.179688 430.832031 341.179688 435.769531 L 341.148438 435.769531 C 341.148438 440.703125 341.210938 445.640625 341.136719 450.574219 C 341.023438 457.800781 339.644531 460.300781 335.890625 460.40625 C 331.984375 460.515625 329.988281 457.609375 329.898438 450.765625 C 329.769531 440.6875 329.867188 430.597656 329.964844 420.515625 C 330.015625 414.898438 332.066406 411.71875 335.578125 411.351563 "/>
  <path style="fill: #fff" d="M 365.980469 414.515625 C 365.78125 409.628906 368.40625 408.035156 370.984375 407.617188 C 375.992188 407.691406 379.332031 413.058594 378.140625 421.007813 C 376.621094 431.183594 374 441.074219 371.496094 450.910156 C 370.175781 456.085938 366.902344 456.554688 363.808594 454.253906 C 360.664063 451.914063 359.058594 448.25 360.882813 442.988281 C 363.996094 434.007813 366.394531 424.8125 365.980469 414.515625 "/>
  <path style="fill: #fff" d="M 616.394531 309.210938 C 616.359375 308.457031 616.347656 307.359375 616.703125 306.976563 C 618.585938 304.945313 620.480469 301.84375 622.578125 301.5625 C 624.351563 301.324219 627.25 303.875 628.171875 306.148438 C 630.761719 312.574219 633.785156 317.367188 640.054688 317.457031 C 641.179688 317.472656 642.875 318.878906 643.277344 320.164063 C 643.996094 322.480469 644.882813 326.105469 644.011719 327.539063 C 642.328125 330.3125 639.46875 331.941406 637.101563 334.042969 C 627.746094 332.8125 616.875 320.015625 616.394531 309.210938 "/>
  <path style="fill: #fff" d="M 485.308594 206.957031 C 477.734375 212.628906 468.824219 215.050781 459.851563 215.542969 C 451.089844 215.707031 448.292969 213.875 447.890625 208.160156 C 447.53125 203.03125 451.183594 200.808594 458.523438 199.625 C 464.003906 198.738281 469.5 196.730469 474.378906 194.234375 C 479.769531 191.476563 484.996094 191.171875 488.21875 194.84375 C 491.617188 198.710938 490.675781 202.941406 485.308594 206.957031 "/>
  <path style="fill: #fff" d="M 297.304688 433.746094 C 297.484375 428.484375 298.773438 424.488281 303.113281 424.339844 C 307.296875 424.199219 309.304688 426.820313 309.480469 433.488281 C 309.667969 440.375 309.613281 447.28125 309.546875 454.175781 C 309.484375 460.257813 307.097656 463.769531 303.230469 463.71875 C 298.921875 463.664063 297.566406 459.636719 297.335938 454.40625 C 297.1875 450.980469 297.308594 447.527344 297.308594 444.085938 C 297.300781 444.085938 297.292969 444.085938 297.28125 444.082031 C 297.28125 440.636719 297.1875 437.183594 297.304688 433.746094 "/>
  <path style="fill: #fff" d="M 401.902344 412.203125 C 403.726563 411.953125 406.730469 414.976563 407.523438 417.726563 C 409.40625 424.265625 410.386719 431.484375 411.542969 438.507813 C 412.199219 442.492188 411.9375 446.273438 409.03125 448.140625 C 406.140625 449.996094 403.4375 449.550781 402.050781 444.859375 C 400.023438 437.988281 398.4375 430.789063 396.664063 423.726563 C 396.902344 417.417969 398.277344 412.703125 401.902344 412.203125 "/>
  <path style="fill: #fff" d="M 599.925781 140.449219 C 599.882813 134.421875 601.804688 130.0625 604.796875 128.210938 C 606.398438 127.222656 608.296875 126.941406 610.378906 127.515625 C 611.234375 127.753906 612.113281 128.132813 613.019531 128.664063 C 618.691406 132 617.828125 138.03125 617 143.113281 C 616.492188 146.210938 613.894531 149.214844 611.582031 151.632813 C 610.6875 152.570313 607.863281 152.21875 606.140625 151.710938 C 604.734375 151.296875 603.628906 150.699219 602.769531 149.957031 C 600.183594 147.734375 599.78125 144.207031 599.925781 140.449219 "/>
  <path style="fill: #fff" d="M 604.796875 128.210938 C 606.398438 127.222656 608.300781 126.941406 610.378906 127.515625 C 608.300781 126.941406 606.398438 127.222656 604.796875 128.210938 "/>
  <path style="fill: #fff" d="M 190.753906 500.621094 C 190.753906 497.164063 190.0625 493.476563 188.679688 489.097656 C 182.222656 469.039063 161.9375 454.054688 142.570313 444.601563 C 145.105469 462.351563 149.257813 484.253906 158.015625 499.699219 C 164.242188 510.765625 172.308594 515.835938 178.765625 515.835938 C 185.449219 515.835938 190.753906 510.304688 190.753906 500.621094 M 255.761719 138.222656 C 256.453125 132.460938 256.914063 126.699219 256.914063 120.933594 C 256.914063 86.816406 244.003906 58.457031 224.871094 58.457031 C 213.34375 58.457031 199.511719 68.601563 184.527344 93.960938 C 146.953125 157.589844 137.269531 294.292969 137.269531 366.222656 C 197.667969 317.117188 246.542969 216.605469 255.761719 138.222656 M 135.886719 514.453125 C 114.214844 495.089844 100.152344 466.964844 92.085938 433.769531 C 87.011719 431.460938 84.246094 428.464844 84.246094 425.929688 C 84.246094 423.855469 85.628906 422.007813 89.085938 420.855469 C 84.707031 398.265625 82.863281 373.828125 82.863281 348.699219 C 82.863281 239.890625 118.828125 117.707031 149.257813 75.75 C 170.464844 46.242188 198.589844 30.332031 223.027344 30.332031 C 252.765625 30.332031 277.203125 54.078125 277.203125 105.257813 C 277.203125 188.941406 214.960938 327.953125 137.730469 384.894531 C 138.191406 399.417969 138.882813 410.945313 140.265625 418.320313 C 190.523438 413.019531 247.003906 374.058594 256.683594 323.113281 C 257.378906 319.421875 260.835938 316.886719 264.523438 316.886719 C 270.054688 317.578125 273.515625 320.574219 273.515625 325.648438 L 273.285156 327.261719 C 263.140625 380.285156 207.121094 425.007813 154.558594 433.539063 L 155.25 434.230469 C 176.230469 446.214844 195.59375 464.199219 203.894531 486.328125 C 206.660156 493.476563 207.8125 499.699219 207.8125 505.003906 C 207.8125 522.984375 194.441406 531.515625 178.074219 531.515625 C 164.472656 531.515625 148.566406 525.75 135.886719 514.453125 "/>
  <path style="fill: #fff" d="M 316.132813 319.554688 C 316.789063 317.535156 317.074219 315.972656 317.035156 314.75 C 316.976563 312.921875 316.171875 312.171875 315.007813 312.207031 C 311.238281 312.328125 303.433594 321.519531 301.949219 337.496094 C 307.449219 334.210938 314.210938 325.332031 316.132813 319.554688 M 298.855469 355.136719 C 291.941406 350.753906 289.109375 342.074219 288.867188 334.53125 C 288.488281 322.890625 295.929688 307.550781 308.617188 306.808594 C 308.894531 306.746094 309.113281 306.738281 309.335938 306.730469 C 316.101563 306.566406 320.746094 309.359375 320.933594 315.238281 C 320.980469 316.621094 320.753906 318.183594 320.308594 319.917969 C 318.222656 327.535156 309.136719 338.316406 301.8125 341.828125 C 301.886719 344.105469 302.03125 346.875 302.929688 348.953125 C 304.226563 351.242188 306.085938 352.183594 308.304688 352.109375 C 317.066406 351.828125 330.925781 335.894531 332.703125 327.34375 C 332.953125 326.503906 333.769531 325.921875 334.65625 325.894531 C 335.992188 326.074219 336.734375 326.660156 336.769531 327.710938 C 336.773438 327.933594 336.726563 328.101563 336.675781 328.324219 C 333.605469 339.746094 319.113281 356.757813 306.359375 357.167969 C 303.753906 357.253906 301.234375 356.613281 298.855469 355.136719 "/>
  <path style="fill: #fff" d="M 345.953125 400.125 C 340.835938 394.574219 338.042969 371.742188 337.242188 346.902344 C 336.625 327.773438 337.191406 307.492188 338.773438 292.957031 C 323.3125 290.292969 308.078125 287.785156 295.878906 288.179688 C 287.121094 288.464844 279.960938 290.25 275.382813 294.5625 C 275.0625 294.902344 274.675781 295.027344 274.289063 295.039063 C 273.34375 295.070313 272.371094 294.160156 272.339844 293.160156 C 272.328125 292.773438 272.535156 292.320313 272.910156 291.921875 L 272.96875 291.917969 C 278.457031 286.636719 287.214844 284.519531 297.636719 284.183594 C 309.949219 283.785156 324.667969 285.808594 339.335938 288 C 339.839844 284.707031 340.359375 281.859375 340.949219 279.566406 C 342.273438 274.136719 346.667969 271.054688 350.160156 270.886719 C 352.488281 270.8125 354.367188 272.25 354.476563 275.628906 C 354.570313 278.457031 353.039063 282.671875 351.996094 289.863281 C 364.097656 291.636719 375.6875 292.984375 385.386719 292.671875 C 398.199219 292.257813 407.691406 288.898438 410.605469 279.480469 C 410.957031 278.355469 411.714844 277.777344 412.4375 277.753906 C 413.492188 277.71875 414.523438 278.742188 414.585938 280.738281 C 414.613281 281.515625 414.476563 282.460938 414.125 283.582031 C 410.75 294.292969 400.550781 298.121094 386.964844 298.5625 C 376.542969 298.898438 364.109375 297.1875 351.277344 295.105469 C 348.820313 315.335938 347.242188 347.242188 347.957031 369.367188 C 348.441406 384.339844 349.972656 393.894531 352.355469 393.816406 C 358.289063 393.625 367.035156 332.785156 368.851563 323.679688 C 368.988281 322.730469 369.796875 322.039063 370.742188 322.007813 C 372.074219 322.128906 372.816406 322.773438 372.859375 323.992188 L 372.816406 324.4375 C 371.121094 335.484375 364.0625 402.261719 350.699219 402.695313 C 349.203125 402.742188 347.625 401.960938 345.953125 400.125 "/>
  <path style="fill: #fff" d="M 381.410156 352.636719 C 376.75 349.398438 373.84375 341.890625 373.585938 333.90625 C 373.230469 322.816406 378.0625 310.949219 390.539063 308.878906 C 391.3125 308.742188 392.035156 308.71875 392.753906 308.695313 C 399.464844 308.480469 402.773438 312.925781 402.949219 318.414063 C 403.046875 321.40625 402.207031 324.65625 400.472656 327.652344 C 400.105469 328.273438 399.558594 328.570313 398.949219 328.589844 C 397.949219 328.621094 396.871094 327.824219 396.835938 326.769531 C 396.824219 326.4375 396.871094 326.101563 397.082031 325.761719 C 398.078125 324.066406 398.953125 320.207031 398.859375 317.214844 C 398.785156 314.941406 398.171875 313.183594 396.675781 313.234375 C 395.953125 313.253906 395.078125 313.671875 393.945313 314.652344 C 388.113281 319.613281 383.824219 331.1875 384.113281 340.113281 C 384.332031 346.933594 387.472656 351.328125 391.410156 351.203125 C 400.613281 350.90625 413.777344 328.886719 414.898438 322.355469 C 415.089844 321.40625 415.902344 320.769531 416.789063 320.738281 C 418.070313 320.867188 418.921875 321.449219 418.964844 322.78125 L 418.921875 323.171875 C 415.355469 334.832031 403.296875 354.925781 390.042969 355.351563 C 387.160156 355.445313 384.304688 354.652344 381.410156 352.636719 "/>
  <path style="fill: #fff" d="M 465.707031 257.105469 C 466.039063 255.375 466.152344 253.761719 466.105469 252.320313 C 465.859375 244.613281 460.941406 240.164063 454.898438 240.359375 C 445.75 240.710938 434.003906 251.636719 431.738281 277.796875 C 430.691406 290.042969 431.160156 302.738281 431.269531 309.617188 C 441.152344 301.082031 462.730469 273.1875 465.707031 257.105469 M 451.496094 387.613281 C 449.058594 384.308594 448.050781 377.234375 447.789063 369.082031 C 447.328125 354.777344 449.253906 337.066406 450.144531 330.375 C 450.472656 328.425781 450.640625 326.808594 450.601563 325.589844 C 450.523438 323.203125 449.410156 323.074219 448.46875 323.105469 C 441.925781 323.316406 437.359375 343.554688 437.59375 350.707031 C 437.609375 351.207031 437.621094 351.648438 437.6875 351.984375 C 437.316406 354.105469 436.378906 356.132813 434.003906 356.429688 C 427.128906 356.652344 417.175781 325.167969 416.195313 294.839844 C 416.007813 289.074219 416.15625 283.351563 416.699219 277.894531 C 419.71875 247.546875 437.714844 234.199219 452.40625 233.722656 C 462.664063 233.449219 471.191406 239.609375 471.558594 250.976563 C 471.636719 253.417969 471.339844 256.148438 470.546875 259.113281 C 465.90625 277.082031 442.824219 306.46875 431.359375 314.054688 C 431.699219 324.644531 432.574219 334.496094 434.082031 341.71875 C 436.222656 330.660156 443.097656 318.394531 451.25 318.128906 C 451.914063 318.109375 452.582031 318.195313 453.308594 318.339844 C 459.347656 319.699219 461.445313 324.460938 461.695313 330.449219 C 461.84375 335.105469 457.578125 368.042969 457.953125 379.632813 C 458.035156 382.128906 458.308594 383.675781 458.917969 383.65625 C 459.140625 383.648438 459.300781 383.476563 459.566406 383.191406 C 467.964844 373.261719 465.867188 327.371094 481.574219 318.757813 C 481.847656 318.636719 482.121094 318.519531 482.398438 318.511719 C 483.34375 318.480469 484.199219 319.285156 484.230469 320.230469 C 484.253906 320.894531 483.9375 321.511719 483.339844 321.867188 C 468.394531 330.007813 471.144531 389.367188 458.007813 391.511719 L 457.394531 391.585938 C 454.847656 391.667969 452.773438 389.40625 451.496094 387.613281 "/>
  <path style="fill: #fff" d="M 507.179688 432.050781 L 507.179688 430.613281 C 507.179688 430.613281 506.628906 390.710938 506.628906 352.886719 C 506.628906 296.546875 506.851563 275.476563 507.511719 263.03125 C 508.613281 240.527344 514.5625 229.195313 519.632813 229.195313 C 523.601563 229.351563 526.90625 236.054688 526.90625 249.621094 L 526.90625 251.855469 C 526.90625 251.855469 527.015625 264.144531 527.015625 281.542969 C 527.015625 347.777344 526.6875 396.296875 525.253906 419.121094 C 524.039063 439.710938 517.980469 452.320313 513.242188 452.320313 C 509.9375 452.320313 507.179688 446.09375 507.179688 432.050781 "/>
  <path style="fill: #fff" d="M 598.894531 338.269531 C 598.855469 337.644531 598.84375 336.730469 599.242188 336.414063 C 601.359375 334.726563 603.492188 332.152344 605.851563 331.917969 C 607.847656 331.71875 611.113281 333.835938 612.144531 335.726563 C 615.0625 341.0625 618.460938 345.042969 625.519531 345.117188 C 626.78125 345.128906 628.691406 346.296875 629.140625 347.363281 C 629.953125 349.289063 630.949219 352.296875 629.96875 353.488281 C 628.074219 355.789063 624.859375 357.140625 622.191406 358.886719 C 611.667969 357.863281 599.433594 347.242188 598.894531 338.269531 "/>
  <path style="fill: #fff" d="M 492.605469 498.324219 C 492.578125 499.40625 492.753906 500.558594 493.121094 501.691406 C 493.523438 502.917969 494.140625 504.003906 495.070313 504.910156 C 496.535156 506.34375 498.746094 506.726563 500.613281 505.882813 C 501.929688 505.285156 502.960938 504.355469 503.800781 503.207031 C 504.976563 501.59375 505.640625 499.769531 505.929688 497.8125 C 506.164063 496.21875 506.101563 494.640625 505.671875 493.078125 C 505.328125 491.839844 504.789063 490.703125 503.925781 489.742188 C 502.875 488.566406 501.5625 487.914063 499.96875 487.953125 C 498.839844 487.980469 497.824219 488.386719 496.90625 489.03125 C 495.246094 490.203125 494.160156 491.808594 493.4375 493.679688 C 492.871094 495.136719 492.585938 496.648438 492.605469 498.324219 M 545.355469 498.285156 L 545.417969 498.273438 C 545.328125 497.496094 545.261719 496.710938 545.144531 495.933594 C 544.949219 494.652344 544.515625 493.445313 543.898438 492.308594 C 543.152344 490.9375 542.183594 489.753906 540.855469 488.902344 C 539.652344 488.132813 538.351563 487.753906 536.917969 488.039063 C 535.476563 488.328125 534.382813 489.160156 533.546875 490.34375 C 532.515625 491.800781 532.050781 493.457031 531.917969 495.210938 C 531.804688 496.730469 532.003906 498.226563 532.4375 499.679688 C 532.941406 501.347656 533.722656 502.875 534.941406 504.148438 C 535.992188 505.242188 537.203125 506.039063 538.738281 506.273438 C 539.835938 506.441406 540.859375 506.234375 541.820313 505.699219 C 542.824219 505.140625 543.5625 504.316406 544.121094 503.324219 C 545.003906 501.761719 545.375 500.070313 545.355469 498.285156 M 518.066406 508.238281 C 518.042969 506.753906 517.847656 505.375 517.34375 504.058594 C 516.792969 502.628906 516 501.367188 514.710938 500.484375 C 513.175781 499.429688 511.523438 499.246094 509.785156 499.886719 C 508.53125 500.34375 507.515625 501.148438 506.652344 502.144531 C 505.546875 503.414063 504.796875 504.871094 504.292969 506.472656 C 503.90625 507.71875 503.699219 508.992188 503.671875 510.289063 C 503.644531 511.582031 503.804688 512.855469 504.203125 514.09375 C 504.640625 515.460938 505.300781 516.695313 506.363281 517.675781 C 508.015625 519.199219 510.097656 519.5625 512.128906 518.722656 C 513.636719 518.101563 514.792969 517.035156 515.71875 515.71875 C 517.3125 513.457031 518.003906 510.902344 518.066406 508.238281 M 519.890625 508.191406 C 519.929688 509.808594 520.199219 511.425781 520.796875 512.980469 C 521.433594 514.648438 522.34375 516.136719 523.675781 517.339844 C 524.675781 518.238281 525.804688 518.875 527.15625 519.089844 C 528.878906 519.355469 530.351563 518.820313 531.601563 517.667969 C 532.945313 516.429688 533.648438 514.832031 534.027344 513.078125 C 534.261719 512 534.332031 510.90625 534.265625 509.796875 C 534.210938 508.828125 534.0625 507.878906 533.808594 506.945313 C 533.363281 505.308594 532.65625 503.789063 531.578125 502.464844 C 530.394531 501.011719 528.964844 499.917969 527.0625 499.59375 C 526.128906 499.429688 525.222656 499.539063 524.347656 499.886719 C 523.003906 500.421875 522.039063 501.390625 521.3125 502.613281 C 520.296875 504.316406 519.929688 506.191406 519.890625 508.191406 M 495.566406 484.097656 C 494.828125 482.082031 494.554688 480.011719 494.683594 477.894531 C 494.75 476.820313 494.941406 475.765625 495.234375 474.726563 C 495.761719 472.855469 496.617188 471.152344 497.804688 469.621094 C 499.207031 467.808594 500.921875 466.371094 502.972656 465.332031 C 503.855469 464.882813 504.773438 464.515625 505.726563 464.253906 C 507.628906 463.730469 509.570313 463.574219 511.539063 463.785156 C 513.039063 463.945313 514.460938 464.371094 515.867188 464.894531 C 517.191406 465.386719 518.574219 465.53125 519.988281 465.382813 C 521.117188 465.261719 522.144531 464.84375 523.207031 464.503906 C 523.976563 464.257813 524.769531 464.078125 525.5625 463.910156 C 526.765625 463.65625 527.988281 463.652344 529.210938 463.730469 C 530.382813 463.808594 531.535156 464.035156 532.664063 464.386719 C 534.59375 464.992188 536.328125 465.941406 537.875 467.242188 C 539.582031 468.679688 540.914063 470.40625 541.871094 472.425781 C 542.367188 473.476563 542.734375 474.570313 542.972656 475.703125 C 543.335938 477.425781 543.40625 479.164063 543.175781 480.90625 C 543.035156 481.996094 542.78125 483.0625 542.390625 484.101563 C 542.777344 484.328125 543.15625 484.535156 543.515625 484.765625 C 545.082031 485.75 546.332031 487.054688 547.371094 488.570313 C 548.367188 490.027344 549.09375 491.609375 549.582031 493.300781 C 549.984375 494.710938 550.207031 496.15625 550.273438 497.625 C 550.332031 498.875 550.230469 500.117188 550 501.339844 C 549.492188 504.019531 548.378906 506.402344 546.425781 508.34375 C 545.277344 509.484375 543.917969 510.316406 542.363281 510.804688 C 541.421875 511.097656 540.457031 511.257813 539.464844 511.242188 C 539.246094 511.238281 539.175781 511.308594 539.167969 511.53125 C 539.117188 512.664063 538.9375 513.78125 538.648438 514.882813 C 538.1875 516.625 537.457031 518.238281 536.378906 519.683594 C 535.054688 521.457031 533.378906 522.769531 531.28125 523.507813 C 529.769531 524.039063 528.21875 524.1875 526.628906 523.976563 C 524.425781 523.6875 522.503906 522.777344 520.816406 521.363281 C 520.21875 520.859375 519.683594 520.273438 519.132813 519.714844 C 519 519.578125 518.933594 519.589844 518.816406 519.726563 C 517.546875 521.214844 516.03125 522.378906 514.234375 523.171875 C 512.574219 523.902344 510.832031 524.207031 509.03125 524.027344 C 506.75 523.804688 504.761719 522.882813 503.066406 521.328125 C 501.476563 519.871094 500.390625 518.09375 499.671875 516.078125 C 499.148438 514.605469 498.855469 513.078125 498.789063 511.515625 C 498.78125 511.300781 498.703125 511.242188 498.5 511.242188 C 496.207031 511.234375 494.167969 510.492188 492.375 509.082031 C 490.917969 507.933594 489.851563 506.476563 489.066406 504.808594 C 488.625 503.871094 488.300781 502.894531 488.070313 501.890625 C 487.839844 500.898438 487.738281 499.890625 487.683594 498.871094 C 487.628906 497.808594 487.707031 496.753906 487.871094 495.710938 C 488.015625 494.785156 488.222656 493.863281 488.488281 492.96875 C 488.914063 491.550781 489.527344 490.207031 490.332031 488.957031 C 491.351563 487.363281 492.613281 485.996094 494.179688 484.929688 C 494.617188 484.628906 495.089844 484.382813 495.566406 484.097656 "/>
</svg>
